<?xml version="1.0" encoding="utf-8" standalone="no"?>
<!DOCTYPE svg PUBLIC "-//W3C//DTD SVG 1.1//EN"
  "http://www.w3.org/Graphics/SVG/1.1/DTD/svg11.dtd">
<svg xmlns:xlink="http://www.w3.org/1999/xlink" width="411.56pt" height="318.457625pt" viewBox="0 0 411.56 318.457625" xmlns="http://www.w3.org/2000/svg" version="1.1">
 <metadata>
  <rdf:RDF xmlns:dc="http://purl.org/dc/elements/1.1/" xmlns:cc="http://creativecommons.org/ns#" xmlns:rdf="http://www.w3.org/1999/02/22-rdf-syntax-ns#">
   <cc:Work>
    <dc:type rdf:resource="http://purl.org/dc/dcmitype/StillImage"/>
    <dc:date>2023-03-21T09:57:33.970150</dc:date>
    <dc:format>image/svg+xml</dc:format>
    <dc:creator>
     <cc:Agent>
      <dc:title>Matplotlib v3.5.2, https://matplotlib.org/</dc:title>
     </cc:Agent>
    </dc:creator>
   </cc:Work>
  </rdf:RDF>
 </metadata>
 <defs>
  <style type="text/css">*{stroke-linejoin: round; stroke-linecap: butt}</style>
 </defs>
 <g id="figure_1">
  <g id="patch_1">
   <path d="M 0 318.457625 
L 411.56 318.457625 
L 411.56 0 
L 0 0 
z
" style="fill: #ffffff"/>
  </g>
  <g id="axes_1">
   <g id="patch_2">
    <path d="M 41.24 277.47825 
L 398.36 277.47825 
L 398.36 11.36625 
L 41.24 11.36625 
z
" style="fill: #ffffff"/>
   </g>
   <g id="PathCollection_1">
    <path d="M 94.165184 127.291282 
C 96.608797 127.291282 98.952655 126.320424 100.68055 124.592528 
C 102.408446 122.864633 103.379304 120.520775 103.379304 118.077162 
C 103.379304 115.633549 102.408446 113.289691 100.68055 111.561796 
C 98.952655 109.8339 96.608797 108.863042 94.165184 108.863042 
C 91.721571 108.863042 89.377713 109.8339 87.649818 111.561796 
C 85.921922 113.289691 84.951064 115.633549 84.951064 118.077162 
C 84.951064 120.520775 85.921922 122.864633 87.649818 124.592528 
C 89.377713 126.320424 91.721571 127.291282 94.165184 127.291282 
z
" clip-path="url(#p4c88f2ad2f)" style="fill: #bcbd22; fill-opacity: 0.6; stroke: #bcbd22; stroke-opacity: 0.6"/>
    <path d="M 99.593408 91.439265 
C 101.915261 91.439265 104.142329 90.516783 105.784127 88.874985 
C 107.425925 87.233187 108.348407 85.006119 108.348407 82.684266 
C 108.348407 80.362413 107.425925 78.135345 105.784127 76.493547 
C 104.142329 74.851749 101.915261 73.929267 99.593408 73.929267 
C 97.271555 73.929267 95.044487 74.851749 93.402689 76.493547 
C 91.760891 78.135345 90.838409 80.362413 90.838409 82.684266 
C 90.838409 85.006119 91.760891 87.233187 93.402689 88.874985 
C 95.044487 90.516783 97.271555 91.439265 99.593408 91.439265 
z
" clip-path="url(#p4c88f2ad2f)" style="fill: #ff7f0e; fill-opacity: 0.6; stroke: #ff7f0e; stroke-opacity: 0.6"/>
    <path d="M 112.378304 115.642597 
C 114.696746 115.642597 116.920544 114.72147 118.55993 113.082084 
C 120.199316 111.442698 121.120443 109.2189 121.120443 106.900458 
C 121.120443 104.582016 120.199316 102.358218 118.55993 100.718832 
C 116.920544 99.079446 114.696746 98.158319 112.378304 98.158319 
C 110.059862 98.158319 107.836064 99.079446 106.196678 100.718832 
C 104.557292 102.358218 103.636165 104.582016 103.636165 106.900458 
C 103.636165 109.2189 104.557292 111.442698 106.196678 113.082084 
C 107.836064 114.72147 110.059862 115.642597 112.378304 115.642597 
z
" clip-path="url(#p4c88f2ad2f)" style="fill: #1f77b4; fill-opacity: 0.6; stroke: #1f77b4; stroke-opacity: 0.6"/>
    <path d="M 235.727552 167.147707 
C 238.931464 167.147707 242.004584 165.874779 244.270093 163.609271 
C 246.535601 161.343762 247.808529 158.270642 247.808529 155.06673 
C 247.808529 151.862818 246.535601 148.789698 244.270093 146.524189 
C 242.004584 144.258681 238.931464 142.985753 235.727552 142.985753 
C 232.52364 142.985753 229.45052 144.258681 227.185011 146.524189 
C 224.919503 148.789698 223.646575 151.862818 223.646575 155.06673 
C 223.646575 158.270642 224.919503 161.343762 227.185011 163.609271 
C 229.45052 165.874779 232.52364 167.147707 235.727552 167.147707 
z
" clip-path="url(#p4c88f2ad2f)" style="fill: #e377c2; fill-opacity: 0.6; stroke: #e377c2; stroke-opacity: 0.6"/>
    <path d="M 326.22176 170.92485 
C 330.074514 170.92485 333.769988 169.394135 336.494296 166.669826 
C 339.218605 163.945518 340.74932 160.250044 340.74932 156.39729 
C 340.74932 152.544536 339.218605 148.849062 336.494296 146.124754 
C 333.769988 143.400445 330.074514 141.86973 326.22176 141.86973 
C 322.369006 141.86973 318.673532 143.400445 315.949224 146.124754 
C 313.224915 148.849062 311.6942 152.544536 311.6942 156.39729 
C 311.6942 160.250044 313.224915 163.945518 315.949224 166.669826 
C 318.673532 169.394135 322.369006 170.92485 326.22176 170.92485 
z
" clip-path="url(#p4c88f2ad2f)" style="fill: #9467bd; fill-opacity: 0.6; stroke: #9467bd; stroke-opacity: 0.6"/>
    <path d="M 162.803648 113.348726 
C 165.29006 113.348726 167.674969 112.360864 169.433128 110.602706 
C 171.191286 108.844547 172.179148 106.459638 172.179148 103.973226 
C 172.179148 101.486814 171.191286 99.101905 169.433128 97.343746 
C 167.674969 95.585588 165.29006 94.597726 162.803648 94.597726 
C 160.317236 94.597726 157.932327 95.585588 156.174168 97.343746 
C 154.41601 99.101905 153.428148 101.486814 153.428148 103.973226 
C 153.428148 106.459638 154.41601 108.844547 156.174168 110.602706 
C 157.932327 112.360864 160.317236 113.348726 162.803648 113.348726 
z
" clip-path="url(#p4c88f2ad2f)" style="fill: #17becf; fill-opacity: 0.6; stroke: #17becf; stroke-opacity: 0.6"/>
   </g>
   <g id="PathCollection_2">
    <path d="M 76.952 243.685174 
C 78.576031 243.685174 80.133764 243.03994 81.282127 241.891577 
C 82.43049 240.743214 83.075724 239.185481 83.075724 237.56145 
C 83.075724 235.937419 82.43049 234.379686 81.282127 233.231323 
C 80.133764 232.08296 78.576031 231.437726 76.952 231.437726 
C 75.327969 231.437726 73.770236 232.08296 72.621873 233.231323 
C 71.47351 234.379686 70.828276 235.937419 70.828276 237.56145 
C 70.828276 239.185481 71.47351 240.743214 72.621873 241.891577 
C 73.770236 243.03994 75.327969 243.685174 76.952 243.685174 
z
" clip-path="url(#p4c88f2ad2f)" style="fill: #737373; fill-opacity: 0.2; stroke: #737373; stroke-opacity: 0.2"/>
    <path d="M 121.94912 248.168052 
C 124.762024 248.168052 127.460097 247.050473 129.44912 245.06145 
C 131.438143 243.072427 132.555722 240.374354 132.555722 237.56145 
C 132.555722 234.748546 131.438143 232.050473 129.44912 230.06145 
C 127.460097 228.072427 124.762024 226.954848 121.94912 226.954848 
C 119.136216 226.954848 116.438143 228.072427 114.44912 230.06145 
C 112.460097 232.050473 111.342518 234.748546 111.342518 237.56145 
C 111.342518 240.374354 112.460097 243.072427 114.44912 245.06145 
C 116.438143 247.050473 119.136216 248.168052 121.94912 248.168052 
z
" clip-path="url(#p4c88f2ad2f)" style="fill: #737373; fill-opacity: 0.2; stroke: #737373; stroke-opacity: 0.2"/>
    <path d="M 188.37344 252.56145 
C 192.351487 252.56145 196.167138 250.980955 198.980042 248.168052 
C 201.792945 245.355148 203.37344 241.539497 203.37344 237.56145 
C 203.37344 233.583404 201.792945 229.767752 198.980042 226.954848 
C 196.167138 224.141945 192.351487 222.56145 188.37344 222.56145 
C 184.395394 222.56145 180.579742 224.141945 177.766838 226.954848 
C 174.953935 229.767752 173.37344 233.583404 173.37344 237.56145 
C 173.37344 241.539497 174.953935 245.355148 177.766838 248.168052 
C 180.579742 250.980955 184.395394 252.56145 188.37344 252.56145 
z
" clip-path="url(#p4c88f2ad2f)" style="fill: #737373; fill-opacity: 0.2; stroke: #737373; stroke-opacity: 0.2"/>
    <path d="M 257.65472 256.926367 
C 262.790356 256.926367 267.716341 254.885957 271.347784 251.254514 
C 274.979227 247.623071 277.019637 242.697086 277.019637 237.56145 
C 277.019637 232.425814 274.979227 227.499829 271.347784 223.868386 
C 267.716341 220.236943 262.790356 218.196533 257.65472 218.196533 
C 252.519084 218.196533 247.593099 220.236943 243.961656 223.868386 
C 240.330213 227.499829 238.289803 232.425814 238.289803 237.56145 
C 238.289803 242.697086 240.330213 247.623071 243.961656 251.254514 
C 247.593099 254.885957 252.519084 256.926367 257.65472 256.926367 
z
" clip-path="url(#p4c88f2ad2f)" style="fill: #737373; fill-opacity: 0.2; stroke: #737373; stroke-opacity: 0.2"/>
    <path d="M 331.93568 260.474328 
C 338.012246 260.474328 343.84075 258.060083 348.137532 253.763302 
C 352.434313 249.46652 354.848558 243.638016 354.848558 237.56145 
C 354.848558 231.484884 352.434313 225.65638 348.137532 221.359598 
C 343.84075 217.062817 338.012246 214.648572 331.93568 214.648572 
C 325.859114 214.648572 320.03061 217.062817 315.733828 221.359598 
C 311.437047 225.65638 309.022802 231.484884 309.022802 237.56145 
C 309.022802 243.638016 311.437047 249.46652 315.733828 253.763302 
C 320.03061 258.060083 325.859114 260.474328 331.93568 260.474328 
z
" clip-path="url(#p4c88f2ad2f)" style="fill: #737373; fill-opacity: 0.2; stroke: #737373; stroke-opacity: 0.2"/>
   </g>
   <g id="patch_3">
    <path d="M 59.81024 264.17265 
L 359.79104 264.17265 
L 359.79104 189.66129 
L 59.81024 189.66129 
L 59.81024 264.17265 
z
" clip-path="url(#p4c88f2ad2f)" style="fill: none; stroke: #808080; stroke-width: 0.5; stroke-linejoin: miter"/>
   </g>
   <g id="matplotlib.axis_1">
    <g id="xtick_1">
     <g id="line2d_1">
      <path d="M 41.24 277.47825 
L 41.24 11.36625 
" clip-path="url(#p4c88f2ad2f)" style="fill: none; stroke-dasharray: 2.96,1.28; stroke-dashoffset: 0; stroke: #b0b0b0; stroke-width: 0.8"/>
     </g>
     <g id="line2d_2">
      <defs>
       <path id="mceab74af12" d="M 0 0 
L 0 3.5 
" style="stroke: #000000; stroke-width: 0.8"/>
      </defs>
      <g>
       <use xlink:href="#mceab74af12" x="41.24" y="277.47825" style="stroke: #000000; stroke-width: 0.8"/>
      </g>
     </g>
     <g id="text_1">
      <!-- 30 -->
      <g transform="translate(35.24 292.81075)scale(0.12 -0.12)">
       <defs>
        <path id="TimesNewRomanPSMT-33" d="M 325 3431 
Q 506 3859 782 4092 
Q 1059 4325 1472 4325 
Q 1981 4325 2253 3994 
Q 2459 3747 2459 3466 
Q 2459 3003 1878 2509 
Q 2269 2356 2469 2072 
Q 2669 1788 2669 1403 
Q 2669 853 2319 450 
Q 1863 -75 997 -75 
Q 569 -75 414 31 
Q 259 138 259 259 
Q 259 350 332 419 
Q 406 488 509 488 
Q 588 488 669 463 
Q 722 447 909 348 
Q 1097 250 1169 231 
Q 1284 197 1416 197 
Q 1734 197 1970 444 
Q 2206 691 2206 1028 
Q 2206 1275 2097 1509 
Q 2016 1684 1919 1775 
Q 1784 1900 1550 2001 
Q 1316 2103 1072 2103 
L 972 2103 
L 972 2197 
Q 1219 2228 1467 2375 
Q 1716 2522 1828 2728 
Q 1941 2934 1941 3181 
Q 1941 3503 1739 3701 
Q 1538 3900 1238 3900 
Q 753 3900 428 3381 
L 325 3431 
z
" transform="scale(0.015625)"/>
        <path id="TimesNewRomanPSMT-30" d="M 231 2094 
Q 231 2819 450 3342 
Q 669 3866 1031 4122 
Q 1313 4325 1613 4325 
Q 2100 4325 2488 3828 
Q 2972 3213 2972 2159 
Q 2972 1422 2759 906 
Q 2547 391 2217 158 
Q 1888 -75 1581 -75 
Q 975 -75 572 641 
Q 231 1244 231 2094 
z
M 844 2016 
Q 844 1141 1059 588 
Q 1238 122 1591 122 
Q 1759 122 1940 273 
Q 2122 425 2216 781 
Q 2359 1319 2359 2297 
Q 2359 3022 2209 3506 
Q 2097 3866 1919 4016 
Q 1791 4119 1609 4119 
Q 1397 4119 1231 3928 
Q 1006 3669 925 3112 
Q 844 2556 844 2016 
z
" transform="scale(0.015625)"/>
       </defs>
       <use xlink:href="#TimesNewRomanPSMT-33"/>
       <use xlink:href="#TimesNewRomanPSMT-30" x="50"/>
      </g>
     </g>
    </g>
    <g id="xtick_2">
     <g id="line2d_3">
      <path d="M 112.664 277.47825 
L 112.664 11.36625 
" clip-path="url(#p4c88f2ad2f)" style="fill: none; stroke-dasharray: 2.96,1.28; stroke-dashoffset: 0; stroke: #b0b0b0; stroke-width: 0.8"/>
     </g>
     <g id="line2d_4">
      <g>
       <use xlink:href="#mceab74af12" x="112.664" y="277.47825" style="stroke: #000000; stroke-width: 0.8"/>
      </g>
     </g>
     <g id="text_2">
      <!-- 40 -->
      <g transform="translate(106.664 292.81075)scale(0.12 -0.12)">
       <defs>
        <path id="TimesNewRomanPSMT-34" d="M 2978 1563 
L 2978 1119 
L 2409 1119 
L 2409 0 
L 1894 0 
L 1894 1119 
L 100 1119 
L 100 1519 
L 2066 4325 
L 2409 4325 
L 2409 1563 
L 2978 1563 
z
M 1894 1563 
L 1894 3666 
L 406 1563 
L 1894 1563 
z
" transform="scale(0.015625)"/>
       </defs>
       <use xlink:href="#TimesNewRomanPSMT-34"/>
       <use xlink:href="#TimesNewRomanPSMT-30" x="50"/>
      </g>
     </g>
    </g>
    <g id="xtick_3">
     <g id="line2d_5">
      <path d="M 184.088 277.47825 
L 184.088 11.36625 
" clip-path="url(#p4c88f2ad2f)" style="fill: none; stroke-dasharray: 2.96,1.28; stroke-dashoffset: 0; stroke: #b0b0b0; stroke-width: 0.8"/>
     </g>
     <g id="line2d_6">
      <g>
       <use xlink:href="#mceab74af12" x="184.088" y="277.47825" style="stroke: #000000; stroke-width: 0.8"/>
      </g>
     </g>
     <g id="text_3">
      <!-- 50 -->
      <g transform="translate(178.088 292.81075)scale(0.12 -0.12)">
       <defs>
        <path id="TimesNewRomanPSMT-35" d="M 2778 4238 
L 2534 3706 
L 1259 3706 
L 981 3138 
Q 1809 3016 2294 2522 
Q 2709 2097 2709 1522 
Q 2709 1188 2573 903 
Q 2438 619 2231 419 
Q 2025 219 1772 97 
Q 1413 -75 1034 -75 
Q 653 -75 479 54 
Q 306 184 306 341 
Q 306 428 378 495 
Q 450 563 559 563 
Q 641 563 702 538 
Q 763 513 909 409 
Q 1144 247 1384 247 
Q 1750 247 2026 523 
Q 2303 800 2303 1197 
Q 2303 1581 2056 1914 
Q 1809 2247 1375 2428 
Q 1034 2569 447 2591 
L 1259 4238 
L 2778 4238 
z
" transform="scale(0.015625)"/>
       </defs>
       <use xlink:href="#TimesNewRomanPSMT-35"/>
       <use xlink:href="#TimesNewRomanPSMT-30" x="50"/>
      </g>
     </g>
    </g>
    <g id="xtick_4">
     <g id="line2d_7">
      <path d="M 255.512 277.47825 
L 255.512 11.36625 
" clip-path="url(#p4c88f2ad2f)" style="fill: none; stroke-dasharray: 2.96,1.28; stroke-dashoffset: 0; stroke: #b0b0b0; stroke-width: 0.8"/>
     </g>
     <g id="line2d_8">
      <g>
       <use xlink:href="#mceab74af12" x="255.512" y="277.47825" style="stroke: #000000; stroke-width: 0.8"/>
      </g>
     </g>
     <g id="text_4">
      <!-- 60 -->
      <g transform="translate(249.512 292.81075)scale(0.12 -0.12)">
       <defs>
        <path id="TimesNewRomanPSMT-36" d="M 2869 4325 
L 2869 4209 
Q 2456 4169 2195 4045 
Q 1934 3922 1679 3669 
Q 1425 3416 1258 3105 
Q 1091 2794 978 2366 
Q 1428 2675 1881 2675 
Q 2316 2675 2634 2325 
Q 2953 1975 2953 1425 
Q 2953 894 2631 456 
Q 2244 -75 1606 -75 
Q 1172 -75 869 213 
Q 275 772 275 1663 
Q 275 2231 503 2743 
Q 731 3256 1154 3653 
Q 1578 4050 1965 4187 
Q 2353 4325 2688 4325 
L 2869 4325 
z
M 925 2138 
Q 869 1716 869 1456 
Q 869 1156 980 804 
Q 1091 453 1309 247 
Q 1469 100 1697 100 
Q 1969 100 2183 356 
Q 2397 613 2397 1088 
Q 2397 1622 2184 2012 
Q 1972 2403 1581 2403 
Q 1463 2403 1327 2353 
Q 1191 2303 925 2138 
z
" transform="scale(0.015625)"/>
       </defs>
       <use xlink:href="#TimesNewRomanPSMT-36"/>
       <use xlink:href="#TimesNewRomanPSMT-30" x="50"/>
      </g>
     </g>
    </g>
    <g id="xtick_5">
     <g id="line2d_9">
      <path d="M 326.936 277.47825 
L 326.936 11.36625 
" clip-path="url(#p4c88f2ad2f)" style="fill: none; stroke-dasharray: 2.96,1.28; stroke-dashoffset: 0; stroke: #b0b0b0; stroke-width: 0.8"/>
     </g>
     <g id="line2d_10">
      <g>
       <use xlink:href="#mceab74af12" x="326.936" y="277.47825" style="stroke: #000000; stroke-width: 0.8"/>
      </g>
     </g>
     <g id="text_5">
      <!-- 70 -->
      <g transform="translate(320.936 292.81075)scale(0.12 -0.12)">
       <defs>
        <path id="TimesNewRomanPSMT-37" d="M 644 4238 
L 2916 4238 
L 2916 4119 
L 1503 -88 
L 1153 -88 
L 2419 3728 
L 1253 3728 
Q 900 3728 750 3644 
Q 488 3500 328 3200 
L 238 3234 
L 644 4238 
z
" transform="scale(0.015625)"/>
       </defs>
       <use xlink:href="#TimesNewRomanPSMT-37"/>
       <use xlink:href="#TimesNewRomanPSMT-30" x="50"/>
      </g>
     </g>
    </g>
    <g id="xtick_6">
     <g id="line2d_11">
      <path d="M 398.36 277.47825 
L 398.36 11.36625 
" clip-path="url(#p4c88f2ad2f)" style="fill: none; stroke-dasharray: 2.96,1.28; stroke-dashoffset: 0; stroke: #b0b0b0; stroke-width: 0.8"/>
     </g>
     <g id="line2d_12">
      <g>
       <use xlink:href="#mceab74af12" x="398.36" y="277.47825" style="stroke: #000000; stroke-width: 0.8"/>
      </g>
     </g>
     <g id="text_6">
      <!-- 80 -->
      <g transform="translate(392.36 292.81075)scale(0.12 -0.12)">
       <defs>
        <path id="TimesNewRomanPSMT-38" d="M 1228 2134 
Q 725 2547 579 2797 
Q 434 3047 434 3316 
Q 434 3728 753 4026 
Q 1072 4325 1600 4325 
Q 2113 4325 2425 4047 
Q 2738 3769 2738 3413 
Q 2738 3175 2569 2928 
Q 2400 2681 1866 2347 
Q 2416 1922 2594 1678 
Q 2831 1359 2831 1006 
Q 2831 559 2490 242 
Q 2150 -75 1597 -75 
Q 994 -75 656 303 
Q 388 606 388 966 
Q 388 1247 577 1523 
Q 766 1800 1228 2134 
z
M 1719 2469 
Q 2094 2806 2194 3001 
Q 2294 3197 2294 3444 
Q 2294 3772 2109 3958 
Q 1925 4144 1606 4144 
Q 1288 4144 1088 3959 
Q 888 3775 888 3528 
Q 888 3366 970 3203 
Q 1053 3041 1206 2894 
L 1719 2469 
z
M 1375 2016 
Q 1116 1797 991 1539 
Q 866 1281 866 981 
Q 866 578 1086 336 
Q 1306 94 1647 94 
Q 1984 94 2187 284 
Q 2391 475 2391 747 
Q 2391 972 2272 1150 
Q 2050 1481 1375 2016 
z
" transform="scale(0.015625)"/>
       </defs>
       <use xlink:href="#TimesNewRomanPSMT-38"/>
       <use xlink:href="#TimesNewRomanPSMT-30" x="50"/>
      </g>
     </g>
    </g>
    <g id="text_7">
     <!-- $N_\mathrm{GFlops}$ (gflops) -->
     <g transform="translate(182.66 307.777625)scale(0.12 -0.12)">
      <defs>
       <path id="STIXGeneral-Italic-4e" d="M 4653 4179 
L 4653 4077 
Q 4480 4038 4413 4016 
Q 4346 3994 4266 3882 
Q 4186 3770 4144 3635 
Q 4102 3501 4000 3149 
L 3066 -96 
L 2950 -96 
L 1478 3424 
L 749 723 
Q 691 525 691 378 
Q 691 243 790 182 
Q 890 122 1139 102 
L 1139 0 
L -128 0 
L -128 102 
Q 147 141 262 304 
Q 378 467 550 1075 
L 1299 3731 
Q 1152 4077 749 4077 
L 749 4179 
L 1773 4179 
L 3098 986 
L 3776 3469 
Q 3827 3648 3827 3750 
Q 3827 3923 3740 3987 
Q 3654 4051 3386 4077 
L 3386 4179 
L 4653 4179 
z
" transform="scale(0.015625)"/>
       <path id="STIXGeneral-Regular-47" d="M 4538 2266 
L 4538 2150 
Q 4256 2125 4173 2035 
Q 4090 1946 4090 1638 
L 4090 358 
Q 3539 -90 2464 -90 
Q 1965 -90 1507 89 
Q 1050 269 736 595 
Q 205 1152 205 2093 
Q 205 3155 890 3776 
Q 1491 4326 2419 4326 
Q 2829 4326 3270 4179 
Q 3443 4115 3552 4115 
Q 3654 4115 3731 4176 
Q 3808 4237 3840 4326 
L 3981 4326 
L 4032 2976 
L 3885 2976 
Q 3680 3475 3430 3718 
Q 3059 4070 2496 4070 
Q 1856 4070 1427 3629 
Q 934 3136 934 2074 
Q 934 1190 1395 678 
Q 1856 166 2618 166 
Q 2982 166 3225 281 
Q 3469 397 3469 557 
L 3469 1562 
Q 3469 1933 3376 2025 
Q 3283 2118 2899 2150 
L 2899 2266 
L 4538 2266 
z
" transform="scale(0.015625)"/>
       <path id="STIXGeneral-Regular-46" d="M 3494 3322 
L 3334 3322 
Q 3264 3757 3094 3875 
Q 2925 3994 2349 3994 
L 1504 3994 
Q 1370 3994 1328 3946 
Q 1286 3898 1286 3744 
L 1286 2355 
L 2195 2355 
Q 2598 2355 2736 2470 
Q 2874 2586 2918 2963 
L 3066 2963 
L 3066 1472 
L 2918 1472 
Q 2880 1862 2745 1977 
Q 2611 2093 2195 2093 
L 1286 2093 
L 1286 717 
Q 1286 352 1392 246 
Q 1498 141 1869 122 
L 1869 0 
L 70 0 
L 70 122 
Q 435 147 534 259 
Q 634 371 634 787 
L 634 3526 
Q 634 3878 538 3984 
Q 442 4090 77 4115 
L 77 4237 
L 3462 4237 
L 3494 3322 
z
" transform="scale(0.015625)"/>
       <path id="STIXGeneral-Regular-6c" d="M 1645 0 
L 134 0 
L 134 96 
Q 435 122 531 221 
Q 627 320 627 589 
L 627 3590 
Q 627 3821 569 3910 
Q 512 4000 358 4000 
Q 224 4000 122 3987 
L 122 4090 
Q 730 4237 1133 4371 
L 1165 4346 
L 1165 557 
Q 1165 288 1254 201 
Q 1344 115 1645 96 
L 1645 0 
z
" transform="scale(0.015625)"/>
       <path id="STIXGeneral-Regular-6f" d="M 3008 1478 
Q 3008 806 2608 371 
Q 2208 -64 1568 -64 
Q 979 -64 582 368 
Q 186 800 186 1459 
Q 186 2125 582 2534 
Q 979 2944 1626 2944 
Q 2221 2944 2614 2537 
Q 3008 2131 3008 1478 
z
M 2432 1306 
Q 2432 2035 2112 2445 
Q 1856 2765 1504 2765 
Q 1171 2765 966 2493 
Q 762 2221 762 1747 
Q 762 928 1101 435 
Q 1318 115 1677 115 
Q 2029 115 2230 432 
Q 2432 749 2432 1306 
z
" transform="scale(0.015625)"/>
       <path id="STIXGeneral-Regular-70" d="M 1018 2931 
L 1018 2438 
Q 1421 2944 1939 2944 
Q 2406 2944 2707 2560 
Q 3008 2176 3008 1581 
Q 3008 883 2621 409 
Q 2234 -64 1664 -64 
Q 1466 -64 1328 -6 
Q 1190 51 1018 211 
L 1018 -794 
Q 1018 -1094 1120 -1180 
Q 1222 -1267 1581 -1274 
L 1581 -1389 
L 32 -1389 
L 32 -1280 
Q 314 -1254 397 -1171 
Q 480 -1088 480 -838 
L 480 2157 
Q 480 2381 429 2451 
Q 378 2522 218 2522 
Q 115 2522 58 2515 
L 58 2618 
Q 506 2752 979 2944 
L 1018 2931 
z
M 1018 2138 
L 1018 563 
Q 1018 422 1238 281 
Q 1459 141 1683 141 
Q 2029 141 2243 467 
Q 2458 794 2458 1325 
Q 2458 1888 2243 2224 
Q 2029 2560 1670 2560 
Q 1446 2560 1232 2419 
Q 1018 2278 1018 2138 
z
" transform="scale(0.015625)"/>
       <path id="STIXGeneral-Regular-73" d="M 998 1926 
L 1664 1523 
Q 1984 1331 2105 1164 
Q 2227 998 2227 736 
Q 2227 416 1961 176 
Q 1696 -64 1331 -64 
Q 1030 -64 864 -6 
Q 691 51 570 51 
Q 461 51 416 -26 
L 333 -26 
L 333 979 
L 435 979 
Q 538 512 730 294 
Q 922 77 1248 77 
Q 1485 77 1632 211 
Q 1779 346 1779 550 
Q 1779 845 1440 1030 
L 1094 1222 
Q 326 1651 326 2150 
Q 326 2522 566 2730 
Q 806 2938 1210 2938 
Q 1491 2938 1638 2867 
Q 1754 2816 1818 2816 
Q 1862 2816 1920 2880 
L 1990 2880 
L 2022 2010 
L 1926 2010 
Q 1818 2445 1654 2621 
Q 1491 2797 1203 2797 
Q 986 2797 854 2688 
Q 723 2579 723 2362 
Q 723 2253 796 2128 
Q 870 2003 998 1926 
z
" transform="scale(0.015625)"/>
       <path id="TimesNewRomanPSMT-20" transform="scale(0.015625)"/>
       <path id="TimesNewRomanPSMT-28" d="M 1988 -1253 
L 1988 -1369 
Q 1516 -1131 1200 -813 
Q 750 -359 506 256 
Q 263 872 263 1534 
Q 263 2503 741 3301 
Q 1219 4100 1988 4444 
L 1988 4313 
Q 1603 4100 1356 3731 
Q 1109 3363 987 2797 
Q 866 2231 866 1616 
Q 866 947 969 400 
Q 1050 -31 1165 -292 
Q 1281 -553 1476 -793 
Q 1672 -1034 1988 -1253 
z
" transform="scale(0.015625)"/>
       <path id="TimesNewRomanPSMT-67" d="M 966 1044 
Q 703 1172 562 1401 
Q 422 1631 422 1909 
Q 422 2334 742 2640 
Q 1063 2947 1563 2947 
Q 1972 2947 2272 2747 
L 2878 2747 
Q 3013 2747 3034 2739 
Q 3056 2731 3066 2713 
Q 3084 2684 3084 2613 
Q 3084 2531 3069 2500 
Q 3059 2484 3036 2475 
Q 3013 2466 2878 2466 
L 2506 2466 
Q 2681 2241 2681 1891 
Q 2681 1491 2375 1206 
Q 2069 922 1553 922 
Q 1341 922 1119 984 
Q 981 866 932 777 
Q 884 688 884 625 
Q 884 572 936 522 
Q 988 472 1138 450 
Q 1225 438 1575 428 
Q 2219 413 2409 384 
Q 2700 344 2873 169 
Q 3047 -6 3047 -263 
Q 3047 -616 2716 -925 
Q 2228 -1381 1444 -1381 
Q 841 -1381 425 -1109 
Q 191 -953 191 -784 
Q 191 -709 225 -634 
Q 278 -519 444 -313 
Q 466 -284 763 25 
Q 600 122 533 198 
Q 466 275 466 372 
Q 466 481 555 628 
Q 644 775 966 1044 
z
M 1509 2797 
Q 1278 2797 1122 2612 
Q 966 2428 966 2047 
Q 966 1553 1178 1281 
Q 1341 1075 1591 1075 
Q 1828 1075 1981 1253 
Q 2134 1431 2134 1813 
Q 2134 2309 1919 2591 
Q 1759 2797 1509 2797 
z
M 934 0 
Q 788 -159 713 -296 
Q 638 -434 638 -550 
Q 638 -700 819 -813 
Q 1131 -1006 1722 -1006 
Q 2284 -1006 2551 -807 
Q 2819 -609 2819 -384 
Q 2819 -222 2659 -153 
Q 2497 -84 2016 -72 
Q 1313 -53 934 0 
z
" transform="scale(0.015625)"/>
       <path id="TimesNewRomanPSMT-66" d="M 1319 2638 
L 1319 756 
Q 1319 356 1406 250 
Q 1522 113 1716 113 
L 1975 113 
L 1975 0 
L 266 0 
L 266 113 
L 394 113 
Q 519 113 622 175 
Q 725 238 764 344 
Q 803 450 803 756 
L 803 2638 
L 247 2638 
L 247 2863 
L 803 2863 
L 803 3050 
Q 803 3478 940 3775 
Q 1078 4072 1361 4255 
Q 1644 4438 1997 4438 
Q 2325 4438 2600 4225 
Q 2781 4084 2781 3909 
Q 2781 3816 2700 3733 
Q 2619 3650 2525 3650 
Q 2453 3650 2373 3701 
Q 2294 3753 2178 3923 
Q 2063 4094 1966 4153 
Q 1869 4213 1750 4213 
Q 1606 4213 1506 4136 
Q 1406 4059 1362 3898 
Q 1319 3738 1319 3069 
L 1319 2863 
L 2056 2863 
L 2056 2638 
L 1319 2638 
z
" transform="scale(0.015625)"/>
       <path id="TimesNewRomanPSMT-6c" d="M 1184 4444 
L 1184 647 
Q 1184 378 1223 290 
Q 1263 203 1344 158 
Q 1425 113 1647 113 
L 1647 0 
L 244 0 
L 244 113 
Q 441 113 512 153 
Q 584 194 625 287 
Q 666 381 666 647 
L 666 3247 
Q 666 3731 644 3842 
Q 622 3953 573 3993 
Q 525 4034 450 4034 
Q 369 4034 244 3984 
L 191 4094 
L 1044 4444 
L 1184 4444 
z
" transform="scale(0.015625)"/>
       <path id="TimesNewRomanPSMT-6f" d="M 1600 2947 
Q 2250 2947 2644 2453 
Q 2978 2031 2978 1484 
Q 2978 1100 2793 706 
Q 2609 313 2286 112 
Q 1963 -88 1566 -88 
Q 919 -88 538 428 
Q 216 863 216 1403 
Q 216 1797 411 2186 
Q 606 2575 925 2761 
Q 1244 2947 1600 2947 
z
M 1503 2744 
Q 1338 2744 1170 2645 
Q 1003 2547 900 2300 
Q 797 2053 797 1666 
Q 797 1041 1045 587 
Q 1294 134 1700 134 
Q 2003 134 2200 384 
Q 2397 634 2397 1244 
Q 2397 2006 2069 2444 
Q 1847 2744 1503 2744 
z
" transform="scale(0.015625)"/>
       <path id="TimesNewRomanPSMT-70" d="M -6 2578 
L 875 2934 
L 994 2934 
L 994 2266 
Q 1216 2644 1439 2795 
Q 1663 2947 1909 2947 
Q 2341 2947 2628 2609 
Q 2981 2197 2981 1534 
Q 2981 794 2556 309 
Q 2206 -88 1675 -88 
Q 1444 -88 1275 -22 
Q 1150 25 994 166 
L 994 -706 
Q 994 -1000 1030 -1079 
Q 1066 -1159 1155 -1206 
Q 1244 -1253 1478 -1253 
L 1478 -1369 
L -22 -1369 
L -22 -1253 
L 56 -1253 
Q 228 -1256 350 -1188 
Q 409 -1153 442 -1076 
Q 475 -1000 475 -688 
L 475 2019 
Q 475 2297 450 2372 
Q 425 2447 370 2484 
Q 316 2522 222 2522 
Q 147 2522 31 2478 
L -6 2578 
z
M 994 2081 
L 994 1013 
Q 994 666 1022 556 
Q 1066 375 1236 237 
Q 1406 100 1666 100 
Q 1978 100 2172 344 
Q 2425 663 2425 1241 
Q 2425 1897 2138 2250 
Q 1938 2494 1663 2494 
Q 1513 2494 1366 2419 
Q 1253 2363 994 2081 
z
" transform="scale(0.015625)"/>
       <path id="TimesNewRomanPSMT-73" d="M 2050 2947 
L 2050 1972 
L 1947 1972 
Q 1828 2431 1642 2597 
Q 1456 2763 1169 2763 
Q 950 2763 815 2647 
Q 681 2531 681 2391 
Q 681 2216 781 2091 
Q 878 1963 1175 1819 
L 1631 1597 
Q 2266 1288 2266 781 
Q 2266 391 1970 151 
Q 1675 -88 1309 -88 
Q 1047 -88 709 6 
Q 606 38 541 38 
Q 469 38 428 -44 
L 325 -44 
L 325 978 
L 428 978 
Q 516 541 762 319 
Q 1009 97 1316 97 
Q 1531 97 1667 223 
Q 1803 350 1803 528 
Q 1803 744 1651 891 
Q 1500 1038 1047 1263 
Q 594 1488 453 1669 
Q 313 1847 313 2119 
Q 313 2472 555 2709 
Q 797 2947 1181 2947 
Q 1350 2947 1591 2875 
Q 1750 2828 1803 2828 
Q 1853 2828 1881 2850 
Q 1909 2872 1947 2947 
L 2050 2947 
z
" transform="scale(0.015625)"/>
       <path id="TimesNewRomanPSMT-29" d="M 144 4313 
L 144 4444 
Q 619 4209 934 3891 
Q 1381 3434 1625 2820 
Q 1869 2206 1869 1541 
Q 1869 572 1392 -226 
Q 916 -1025 144 -1369 
L 144 -1253 
Q 528 -1038 776 -670 
Q 1025 -303 1145 264 
Q 1266 831 1266 1447 
Q 1266 2113 1163 2663 
Q 1084 3094 967 3353 
Q 850 3613 656 3853 
Q 463 4094 144 4313 
z
" transform="scale(0.015625)"/>
      </defs>
      <use xlink:href="#STIXGeneral-Italic-4e" transform="translate(0 0.5625)"/>
      <use xlink:href="#STIXGeneral-Regular-47" transform="translate(66.699997 -12.665625)scale(0.7)"/>
      <use xlink:href="#STIXGeneral-Regular-46" transform="translate(117.239984 -12.665625)scale(0.7)"/>
      <use xlink:href="#STIXGeneral-Regular-6c" transform="translate(156.159978 -12.665625)scale(0.7)"/>
      <use xlink:href="#STIXGeneral-Regular-6f" transform="translate(175.619969 -12.665625)scale(0.7)"/>
      <use xlink:href="#STIXGeneral-Regular-70" transform="translate(210.619958 -12.665625)scale(0.7)"/>
      <use xlink:href="#STIXGeneral-Regular-73" transform="translate(245.619948 -12.665625)scale(0.7)"/>
      <use xlink:href="#TimesNewRomanPSMT-20" transform="translate(277.259319 0.5625)"/>
      <use xlink:href="#TimesNewRomanPSMT-28" transform="translate(302.259319 0.5625)"/>
      <use xlink:href="#TimesNewRomanPSMT-67" transform="translate(335.5601 0.5625)"/>
      <use xlink:href="#TimesNewRomanPSMT-66" transform="translate(385.5601 0.5625)"/>
      <use xlink:href="#TimesNewRomanPSMT-6c" transform="translate(418.860881 0.5625)"/>
      <use xlink:href="#TimesNewRomanPSMT-6f" transform="translate(446.644084 0.5625)"/>
      <use xlink:href="#TimesNewRomanPSMT-70" transform="translate(496.644084 0.5625)"/>
      <use xlink:href="#TimesNewRomanPSMT-73" transform="translate(546.644084 0.5625)"/>
      <use xlink:href="#TimesNewRomanPSMT-29" transform="translate(585.5601 0.5625)"/>
     </g>
    </g>
   </g>
   <g id="matplotlib.axis_2">
    <g id="ytick_1">
     <g id="line2d_13">
      <path d="M 41.24 277.47825 
L 398.36 277.47825 
" clip-path="url(#p4c88f2ad2f)" style="fill: none; stroke-dasharray: 2.96,1.28; stroke-dashoffset: 0; stroke: #b0b0b0; stroke-width: 0.8"/>
     </g>
     <g id="line2d_14">
      <defs>
       <path id="m871b1cd592" d="M 0 0 
L -3.5 0 
" style="stroke: #000000; stroke-width: 0.8"/>
      </defs>
      <g>
       <use xlink:href="#m871b1cd592" x="41.24" y="277.47825" style="stroke: #000000; stroke-width: 0.8"/>
      </g>
     </g>
     <g id="text_8">
      <!-- 40 -->
      <g transform="translate(22.24 281.6445)scale(0.12 -0.12)">
       <use xlink:href="#TimesNewRomanPSMT-34"/>
       <use xlink:href="#TimesNewRomanPSMT-30" x="50"/>
      </g>
     </g>
    </g>
    <g id="ytick_2">
     <g id="line2d_15">
      <path d="M 41.24 224.25585 
L 398.36 224.25585 
" clip-path="url(#p4c88f2ad2f)" style="fill: none; stroke-dasharray: 2.96,1.28; stroke-dashoffset: 0; stroke: #b0b0b0; stroke-width: 0.8"/>
     </g>
     <g id="line2d_16">
      <g>
       <use xlink:href="#m871b1cd592" x="41.24" y="224.25585" style="stroke: #000000; stroke-width: 0.8"/>
      </g>
     </g>
     <g id="text_9">
      <!-- 42 -->
      <g transform="translate(22.24 228.4221)scale(0.12 -0.12)">
       <defs>
        <path id="TimesNewRomanPSMT-32" d="M 2934 816 
L 2638 0 
L 138 0 
L 138 116 
Q 1241 1122 1691 1759 
Q 2141 2397 2141 2925 
Q 2141 3328 1894 3587 
Q 1647 3847 1303 3847 
Q 991 3847 742 3664 
Q 494 3481 375 3128 
L 259 3128 
Q 338 3706 661 4015 
Q 984 4325 1469 4325 
Q 1984 4325 2329 3994 
Q 2675 3663 2675 3213 
Q 2675 2891 2525 2569 
Q 2294 2063 1775 1497 
Q 997 647 803 472 
L 1909 472 
Q 2247 472 2383 497 
Q 2519 522 2628 598 
Q 2738 675 2819 816 
L 2934 816 
z
" transform="scale(0.015625)"/>
       </defs>
       <use xlink:href="#TimesNewRomanPSMT-34"/>
       <use xlink:href="#TimesNewRomanPSMT-32" x="50"/>
      </g>
     </g>
    </g>
    <g id="ytick_3">
     <g id="line2d_17">
      <path d="M 41.24 171.03345 
L 398.36 171.03345 
" clip-path="url(#p4c88f2ad2f)" style="fill: none; stroke-dasharray: 2.96,1.28; stroke-dashoffset: 0; stroke: #b0b0b0; stroke-width: 0.8"/>
     </g>
     <g id="line2d_18">
      <g>
       <use xlink:href="#m871b1cd592" x="41.24" y="171.03345" style="stroke: #000000; stroke-width: 0.8"/>
      </g>
     </g>
     <g id="text_10">
      <!-- 44 -->
      <g transform="translate(22.24 175.1997)scale(0.12 -0.12)">
       <use xlink:href="#TimesNewRomanPSMT-34"/>
       <use xlink:href="#TimesNewRomanPSMT-34" x="50"/>
      </g>
     </g>
    </g>
    <g id="ytick_4">
     <g id="line2d_19">
      <path d="M 41.24 117.81105 
L 398.36 117.81105 
" clip-path="url(#p4c88f2ad2f)" style="fill: none; stroke-dasharray: 2.96,1.28; stroke-dashoffset: 0; stroke: #b0b0b0; stroke-width: 0.8"/>
     </g>
     <g id="line2d_20">
      <g>
       <use xlink:href="#m871b1cd592" x="41.24" y="117.81105" style="stroke: #000000; stroke-width: 0.8"/>
      </g>
     </g>
     <g id="text_11">
      <!-- 46 -->
      <g transform="translate(22.24 121.9773)scale(0.12 -0.12)">
       <use xlink:href="#TimesNewRomanPSMT-34"/>
       <use xlink:href="#TimesNewRomanPSMT-36" x="50"/>
      </g>
     </g>
    </g>
    <g id="ytick_5">
     <g id="line2d_21">
      <path d="M 41.24 64.58865 
L 398.36 64.58865 
" clip-path="url(#p4c88f2ad2f)" style="fill: none; stroke-dasharray: 2.96,1.28; stroke-dashoffset: 0; stroke: #b0b0b0; stroke-width: 0.8"/>
     </g>
     <g id="line2d_22">
      <g>
       <use xlink:href="#m871b1cd592" x="41.24" y="64.58865" style="stroke: #000000; stroke-width: 0.8"/>
      </g>
     </g>
     <g id="text_12">
      <!-- 48 -->
      <g transform="translate(22.24 68.7549)scale(0.12 -0.12)">
       <use xlink:href="#TimesNewRomanPSMT-34"/>
       <use xlink:href="#TimesNewRomanPSMT-38" x="50"/>
      </g>
     </g>
    </g>
    <g id="ytick_6">
     <g id="line2d_23">
      <path d="M 41.24 11.36625 
L 398.36 11.36625 
" clip-path="url(#p4c88f2ad2f)" style="fill: none; stroke-dasharray: 2.96,1.28; stroke-dashoffset: 0; stroke: #b0b0b0; stroke-width: 0.8"/>
     </g>
     <g id="line2d_24">
      <g>
       <use xlink:href="#m871b1cd592" x="41.24" y="11.36625" style="stroke: #000000; stroke-width: 0.8"/>
      </g>
     </g>
     <g id="text_13">
      <!-- 50 -->
      <g transform="translate(22.24 15.5325)scale(0.12 -0.12)">
       <use xlink:href="#TimesNewRomanPSMT-35"/>
       <use xlink:href="#TimesNewRomanPSMT-30" x="50"/>
      </g>
     </g>
    </g>
    <g id="text_14">
     <!-- $M_\mathrm{mAP}$ (%) -->
     <g transform="translate(15.6 168.84225)rotate(-90)scale(0.12 -0.12)">
      <defs>
       <path id="STIXGeneral-Italic-4d" d="M 5581 4179 
L 5581 4077 
Q 5318 4032 5225 3945 
Q 5133 3859 5062 3603 
L 4275 768 
Q 4186 448 4186 371 
Q 4186 243 4301 176 
Q 4416 109 4704 102 
L 4698 0 
L 2963 0 
L 2963 102 
Q 3277 134 3405 243 
Q 3533 352 3616 653 
L 4422 3590 
L 2016 0 
L 1907 0 
L 1510 3494 
L 755 755 
Q 698 550 698 410 
Q 698 134 1146 102 
L 1146 0 
L -115 0 
L -115 102 
Q 141 134 259 284 
Q 378 435 525 960 
L 1254 3526 
Q 1331 3789 1331 3859 
Q 1331 4051 858 4077 
L 858 4179 
L 2016 4179 
L 2374 1030 
L 4518 4179 
L 5581 4179 
z
" transform="scale(0.015625)"/>
       <path id="STIXGeneral-Regular-6d" d="M 4960 0 
L 3565 0 
L 3565 96 
Q 3834 122 3907 208 
Q 3981 294 3981 576 
L 3981 1894 
Q 3981 2278 3869 2444 
Q 3757 2611 3488 2611 
Q 3264 2611 3107 2521 
Q 2950 2432 2803 2221 
L 2803 608 
Q 2803 301 2896 201 
Q 2989 102 3264 96 
L 3264 0 
L 1830 0 
L 1830 96 
Q 2112 115 2189 188 
Q 2266 262 2266 550 
L 2266 1901 
Q 2266 2611 1850 2611 
Q 1670 2611 1468 2531 
Q 1267 2451 1171 2336 
Q 1088 2240 1088 2227 
L 1088 448 
Q 1088 243 1177 176 
Q 1267 109 1523 96 
L 1523 0 
L 102 0 
L 102 96 
Q 371 102 460 195 
Q 550 288 550 563 
L 550 2150 
Q 550 2387 499 2480 
Q 448 2573 326 2573 
Q 230 2573 122 2547 
L 122 2656 
Q 557 2778 1011 2944 
L 1062 2925 
L 1062 2451 
L 1075 2451 
Q 1363 2752 1584 2848 
Q 1805 2944 2054 2944 
Q 2560 2944 2733 2406 
Q 3232 2944 3776 2944 
Q 4518 2944 4518 1792 
L 4518 493 
Q 4518 282 4582 202 
Q 4646 122 4794 109 
L 4960 96 
L 4960 0 
z
" transform="scale(0.015625)"/>
       <path id="STIXGeneral-Regular-41" d="M 4525 0 
L 2893 0 
L 2893 122 
Q 3149 122 3245 179 
Q 3334 224 3334 333 
Q 3334 499 3213 781 
L 2950 1382 
L 1274 1382 
L 979 653 
Q 922 506 922 384 
Q 922 237 1027 179 
Q 1133 122 1370 122 
L 1370 0 
L 96 0 
L 96 122 
Q 365 147 486 316 
Q 608 486 902 1190 
L 2221 4314 
L 2349 4314 
L 3923 710 
Q 4064 378 4176 262 
Q 4288 147 4525 122 
L 4525 0 
z
M 2861 1645 
L 2118 3405 
L 1382 1645 
L 2861 1645 
z
" transform="scale(0.015625)"/>
       <path id="STIXGeneral-Regular-50" d="M 102 4237 
L 1760 4237 
Q 2669 4237 3149 3834 
Q 3469 3565 3469 3072 
Q 3469 2560 3104 2234 
Q 2835 1990 2553 1916 
Q 2272 1843 1734 1843 
Q 1549 1843 1293 1862 
L 1293 717 
Q 1293 352 1398 246 
Q 1504 141 1894 122 
L 1894 0 
L 102 0 
L 102 122 
Q 474 147 557 256 
Q 640 365 640 781 
L 640 3526 
Q 640 3885 547 3987 
Q 454 4090 102 4115 
L 102 4237 
z
M 1293 3770 
L 1293 2118 
Q 1510 2099 1683 2099 
Q 2202 2099 2486 2352 
Q 2771 2605 2771 3040 
Q 2771 3558 2476 3779 
Q 2182 4000 1517 4000 
Q 1382 4000 1337 3952 
Q 1293 3904 1293 3770 
z
" transform="scale(0.015625)"/>
       <path id="TimesNewRomanPSMT-25" d="M 4350 4334 
L 1263 -175 
L 984 -175 
L 4072 4334 
L 4350 4334 
z
M 1138 4334 
Q 1559 4334 1792 3984 
Q 2025 3634 2025 3181 
Q 2025 2638 1762 2341 
Q 1500 2044 1131 2044 
Q 884 2044 678 2180 
Q 472 2316 348 2584 
Q 225 2853 225 3181 
Q 225 3509 350 3786 
Q 475 4063 692 4198 
Q 909 4334 1138 4334 
z
M 1128 4159 
Q 969 4159 845 3971 
Q 722 3784 722 3184 
Q 722 2750 791 2522 
Q 844 2350 956 2256 
Q 1022 2200 1119 2200 
Q 1269 2200 1375 2363 
Q 1531 2603 1531 3166 
Q 1531 3759 1378 4000 
Q 1278 4159 1128 4159 
z
M 4206 2103 
Q 4428 2103 4648 1962 
Q 4869 1822 4989 1553 
Q 5109 1284 5109 963 
Q 5109 409 4843 117 
Q 4578 -175 4216 -175 
Q 3988 -175 3773 -34 
Q 3559 106 3436 367 
Q 3313 628 3313 963 
Q 3313 1291 3436 1562 
Q 3559 1834 3773 1968 
Q 3988 2103 4206 2103 
z
M 4209 1938 
Q 4059 1938 3950 1769 
Q 3809 1550 3809 941 
Q 3809 381 3953 159 
Q 4059 0 4209 0 
Q 4353 0 4466 172 
Q 4616 400 4616 956 
Q 4616 1544 4466 1778 
Q 4363 1938 4209 1938 
z
" transform="scale(0.015625)"/>
      </defs>
      <use xlink:href="#STIXGeneral-Italic-4d" transform="translate(0 0.5625)"/>
      <use xlink:href="#STIXGeneral-Regular-6d" transform="translate(83.299988 -12.665625)scale(0.7)"/>
      <use xlink:href="#STIXGeneral-Regular-41" transform="translate(137.759979 -12.665625)scale(0.7)"/>
      <use xlink:href="#STIXGeneral-Regular-50" transform="translate(188.299966 -12.665625)scale(0.7)"/>
      <use xlink:href="#TimesNewRomanPSMT-20" transform="translate(231.699339 0.5625)"/>
      <use xlink:href="#TimesNewRomanPSMT-28" transform="translate(256.699339 0.5625)"/>
      <use xlink:href="#TimesNewRomanPSMT-25" transform="translate(290.000121 0.5625)"/>
      <use xlink:href="#TimesNewRomanPSMT-29" transform="translate(373.300902 0.5625)"/>
     </g>
    </g>
   </g>
   <g id="patch_4">
    <path d="M 41.24 277.47825 
L 41.24 11.36625 
" style="fill: none; stroke: #000000; stroke-width: 0.8; stroke-linejoin: miter; stroke-linecap: square"/>
   </g>
   <g id="patch_5">
    <path d="M 398.36 277.47825 
L 398.36 11.36625 
" style="fill: none; stroke: #000000; stroke-width: 0.8; stroke-linejoin: miter; stroke-linecap: square"/>
   </g>
   <g id="patch_6">
    <path d="M 41.24 277.47825 
L 398.36 277.47825 
" style="fill: none; stroke: #000000; stroke-width: 0.8; stroke-linejoin: miter; stroke-linecap: square"/>
   </g>
   <g id="patch_7">
    <path d="M 41.24 11.36625 
L 398.36 11.36625 
" style="fill: none; stroke: #000000; stroke-width: 0.8; stroke-linejoin: miter; stroke-linecap: square"/>
   </g>
   <g id="text_15">
    <!-- Tood_Effb0 -->
    <g transform="translate(69.166784 139.366122)scale(0.12 -0.12)">
     <defs>
      <path id="TimesNewRomanPSMT-54" d="M 3703 4238 
L 3750 3244 
L 3631 3244 
Q 3597 3506 3538 3619 
Q 3441 3800 3280 3886 
Q 3119 3972 2856 3972 
L 2259 3972 
L 2259 734 
Q 2259 344 2344 247 
Q 2463 116 2709 116 
L 2856 116 
L 2856 0 
L 1059 0 
L 1059 116 
L 1209 116 
Q 1478 116 1591 278 
Q 1659 378 1659 734 
L 1659 3972 
L 1150 3972 
Q 853 3972 728 3928 
Q 566 3869 450 3700 
Q 334 3531 313 3244 
L 194 3244 
L 244 4238 
L 3703 4238 
z
" transform="scale(0.015625)"/>
      <path id="TimesNewRomanPSMT-64" d="M 2222 322 
Q 2013 103 1813 7 
Q 1613 -88 1381 -88 
Q 913 -88 563 304 
Q 213 697 213 1313 
Q 213 1928 600 2439 
Q 988 2950 1597 2950 
Q 1975 2950 2222 2709 
L 2222 3238 
Q 2222 3728 2198 3840 
Q 2175 3953 2125 3993 
Q 2075 4034 2000 4034 
Q 1919 4034 1784 3984 
L 1744 4094 
L 2597 4444 
L 2738 4444 
L 2738 1134 
Q 2738 631 2761 520 
Q 2784 409 2836 365 
Q 2888 322 2956 322 
Q 3041 322 3181 375 
L 3216 266 
L 2366 -88 
L 2222 -88 
L 2222 322 
z
M 2222 541 
L 2222 2016 
Q 2203 2228 2109 2403 
Q 2016 2578 1861 2667 
Q 1706 2756 1559 2756 
Q 1284 2756 1069 2509 
Q 784 2184 784 1559 
Q 784 928 1059 592 
Q 1334 256 1672 256 
Q 1956 256 2222 541 
z
" transform="scale(0.015625)"/>
      <path id="TimesNewRomanPSMT-5f" d="M 3256 -1381 
L -53 -1381 
L -53 -1119 
L 3256 -1119 
L 3256 -1381 
z
" transform="scale(0.015625)"/>
      <path id="TimesNewRomanPSMT-45" d="M 1338 4006 
L 1338 2331 
L 2269 2331 
Q 2631 2331 2753 2441 
Q 2916 2584 2934 2947 
L 3050 2947 
L 3050 1472 
L 2934 1472 
Q 2891 1781 2847 1869 
Q 2791 1978 2662 2040 
Q 2534 2103 2269 2103 
L 1338 2103 
L 1338 706 
Q 1338 425 1363 364 
Q 1388 303 1450 267 
Q 1513 231 1688 231 
L 2406 231 
Q 2766 231 2928 281 
Q 3091 331 3241 478 
Q 3434 672 3638 1063 
L 3763 1063 
L 3397 0 
L 131 0 
L 131 116 
L 281 116 
Q 431 116 566 188 
Q 666 238 702 338 
Q 738 438 738 747 
L 738 3500 
Q 738 3903 656 3997 
Q 544 4122 281 4122 
L 131 4122 
L 131 4238 
L 3397 4238 
L 3444 3309 
L 3322 3309 
Q 3256 3644 3176 3769 
Q 3097 3894 2941 3959 
Q 2816 4006 2500 4006 
L 1338 4006 
z
" transform="scale(0.015625)"/>
      <path id="TimesNewRomanPSMT-62" d="M 984 2369 
Q 1400 2947 1881 2947 
Q 2322 2947 2650 2570 
Q 2978 2194 2978 1541 
Q 2978 778 2472 313 
Q 2038 -88 1503 -88 
Q 1253 -88 995 3 
Q 738 94 469 275 
L 469 3241 
Q 469 3728 445 3840 
Q 422 3953 372 3993 
Q 322 4034 247 4034 
Q 159 4034 28 3984 
L -16 4094 
L 844 4444 
L 984 4444 
L 984 2369 
z
M 984 2169 
L 984 456 
Q 1144 300 1314 220 
Q 1484 141 1663 141 
Q 1947 141 2192 453 
Q 2438 766 2438 1363 
Q 2438 1913 2192 2208 
Q 1947 2503 1634 2503 
Q 1469 2503 1303 2419 
Q 1178 2356 984 2169 
z
" transform="scale(0.015625)"/>
     </defs>
     <use xlink:href="#TimesNewRomanPSMT-54"/>
     <use xlink:href="#TimesNewRomanPSMT-6f" x="54.083984"/>
     <use xlink:href="#TimesNewRomanPSMT-6f" x="104.083984"/>
     <use xlink:href="#TimesNewRomanPSMT-64" x="154.083984"/>
     <use xlink:href="#TimesNewRomanPSMT-5f" x="204.083984"/>
     <use xlink:href="#TimesNewRomanPSMT-45" x="254.083984"/>
     <use xlink:href="#TimesNewRomanPSMT-66" x="315.167969"/>
     <use xlink:href="#TimesNewRomanPSMT-66" x="346.71875"/>
     <use xlink:href="#TimesNewRomanPSMT-62" x="380.019531"/>
     <use xlink:href="#TimesNewRomanPSMT-30" x="430.019531"/>
    </g>
   </g>
   <g id="text_16">
    <!-- Ours -->
    <g transform="translate(85.308608 69.378666)scale(0.12 -0.12)">
     <defs>
      <path id="TimesNewRomanPSMT-4f" d="M 2341 4334 
Q 3166 4334 3770 3707 
Q 4375 3081 4375 2144 
Q 4375 1178 3765 540 
Q 3156 -97 2291 -97 
Q 1416 -97 820 525 
Q 225 1147 225 2134 
Q 225 3144 913 3781 
Q 1509 4334 2341 4334 
z
M 2281 4106 
Q 1713 4106 1369 3684 
Q 941 3159 941 2147 
Q 941 1109 1384 550 
Q 1725 125 2284 125 
Q 2881 125 3270 590 
Q 3659 1056 3659 2059 
Q 3659 3147 3231 3681 
Q 2888 4106 2281 4106 
z
" transform="scale(0.015625)"/>
      <path id="TimesNewRomanPSMT-75" d="M 2709 2863 
L 2709 1128 
Q 2709 631 2732 520 
Q 2756 409 2807 365 
Q 2859 322 2928 322 
Q 3025 322 3147 375 
L 3191 266 
L 2334 -88 
L 2194 -88 
L 2194 519 
Q 1825 119 1631 15 
Q 1438 -88 1222 -88 
Q 981 -88 804 51 
Q 628 191 559 409 
Q 491 628 491 1028 
L 491 2306 
Q 491 2509 447 2587 
Q 403 2666 317 2708 
Q 231 2750 6 2747 
L 6 2863 
L 1009 2863 
L 1009 947 
Q 1009 547 1148 422 
Q 1288 297 1484 297 
Q 1619 297 1789 381 
Q 1959 466 2194 703 
L 2194 2325 
Q 2194 2569 2105 2655 
Q 2016 2741 1734 2747 
L 1734 2863 
L 2709 2863 
z
" transform="scale(0.015625)"/>
      <path id="TimesNewRomanPSMT-72" d="M 1038 2947 
L 1038 2303 
Q 1397 2947 1775 2947 
Q 1947 2947 2059 2842 
Q 2172 2738 2172 2600 
Q 2172 2478 2090 2393 
Q 2009 2309 1897 2309 
Q 1788 2309 1652 2417 
Q 1516 2525 1450 2525 
Q 1394 2525 1328 2463 
Q 1188 2334 1038 2041 
L 1038 669 
Q 1038 431 1097 309 
Q 1138 225 1241 169 
Q 1344 113 1538 113 
L 1538 0 
L 72 0 
L 72 113 
Q 291 113 397 181 
Q 475 231 506 341 
Q 522 394 522 644 
L 522 1753 
Q 522 2253 501 2348 
Q 481 2444 426 2487 
Q 372 2531 291 2531 
Q 194 2531 72 2484 
L 41 2597 
L 906 2947 
L 1038 2947 
z
" transform="scale(0.015625)"/>
     </defs>
     <use xlink:href="#TimesNewRomanPSMT-4f"/>
     <use xlink:href="#TimesNewRomanPSMT-75" x="72.216797"/>
     <use xlink:href="#TimesNewRomanPSMT-72" x="122.216797"/>
     <use xlink:href="#TimesNewRomanPSMT-73" x="155.517578"/>
    </g>
   </g>
   <g id="text_17">
    <!-- Tood_MobileV2 -->
    <g transform="translate(73.095104 106.900458)scale(0.12 -0.12)">
     <defs>
      <path id="TimesNewRomanPSMT-4d" d="M 2619 0 
L 981 3566 
L 981 734 
Q 981 344 1066 247 
Q 1181 116 1431 116 
L 1581 116 
L 1581 0 
L 106 0 
L 106 116 
L 256 116 
Q 525 116 638 278 
Q 706 378 706 734 
L 706 3503 
Q 706 3784 644 3909 
Q 600 4000 483 4061 
Q 366 4122 106 4122 
L 106 4238 
L 1306 4238 
L 2844 922 
L 4356 4238 
L 5556 4238 
L 5556 4122 
L 5409 4122 
Q 5138 4122 5025 3959 
Q 4956 3859 4956 3503 
L 4956 734 
Q 4956 344 5044 247 
Q 5159 116 5409 116 
L 5556 116 
L 5556 0 
L 3756 0 
L 3756 116 
L 3906 116 
Q 4178 116 4288 278 
Q 4356 378 4356 734 
L 4356 3566 
L 2722 0 
L 2619 0 
z
" transform="scale(0.015625)"/>
      <path id="TimesNewRomanPSMT-69" d="M 928 4444 
Q 1059 4444 1151 4351 
Q 1244 4259 1244 4128 
Q 1244 3997 1151 3903 
Q 1059 3809 928 3809 
Q 797 3809 703 3903 
Q 609 3997 609 4128 
Q 609 4259 701 4351 
Q 794 4444 928 4444 
z
M 1188 2947 
L 1188 647 
Q 1188 378 1227 289 
Q 1266 200 1342 156 
Q 1419 113 1622 113 
L 1622 0 
L 231 0 
L 231 113 
Q 441 113 512 153 
Q 584 194 626 287 
Q 669 381 669 647 
L 669 1750 
Q 669 2216 641 2353 
Q 619 2453 572 2492 
Q 525 2531 444 2531 
Q 356 2531 231 2484 
L 188 2597 
L 1050 2947 
L 1188 2947 
z
" transform="scale(0.015625)"/>
      <path id="TimesNewRomanPSMT-65" d="M 681 1784 
Q 678 1147 991 784 
Q 1303 422 1725 422 
Q 2006 422 2214 576 
Q 2422 731 2563 1106 
L 2659 1044 
Q 2594 616 2278 264 
Q 1963 -88 1488 -88 
Q 972 -88 605 314 
Q 238 716 238 1394 
Q 238 2128 614 2539 
Q 991 2950 1559 2950 
Q 2041 2950 2350 2633 
Q 2659 2316 2659 1784 
L 681 1784 
z
M 681 1966 
L 2006 1966 
Q 1991 2241 1941 2353 
Q 1863 2528 1708 2628 
Q 1553 2728 1384 2728 
Q 1125 2728 920 2526 
Q 716 2325 681 1966 
z
" transform="scale(0.015625)"/>
      <path id="TimesNewRomanPSMT-56" d="M 4544 4238 
L 4544 4122 
Q 4319 4081 4203 3978 
Q 4038 3825 3909 3509 
L 2431 -97 
L 2316 -97 
L 728 3556 
Q 606 3838 556 3900 
Q 478 3997 364 4051 
Q 250 4106 56 4122 
L 56 4238 
L 1788 4238 
L 1788 4122 
Q 1494 4094 1406 4022 
Q 1319 3950 1319 3838 
Q 1319 3681 1463 3350 
L 2541 866 
L 3541 3319 
Q 3688 3681 3688 3822 
Q 3688 3913 3597 3995 
Q 3506 4078 3291 4113 
Q 3275 4116 3238 4122 
L 3238 4238 
L 4544 4238 
z
" transform="scale(0.015625)"/>
     </defs>
     <use xlink:href="#TimesNewRomanPSMT-54"/>
     <use xlink:href="#TimesNewRomanPSMT-6f" x="54.083984"/>
     <use xlink:href="#TimesNewRomanPSMT-6f" x="104.083984"/>
     <use xlink:href="#TimesNewRomanPSMT-64" x="154.083984"/>
     <use xlink:href="#TimesNewRomanPSMT-5f" x="204.083984"/>
     <use xlink:href="#TimesNewRomanPSMT-4d" x="254.083984"/>
     <use xlink:href="#TimesNewRomanPSMT-6f" x="343"/>
     <use xlink:href="#TimesNewRomanPSMT-62" x="393"/>
     <use xlink:href="#TimesNewRomanPSMT-69" x="443"/>
     <use xlink:href="#TimesNewRomanPSMT-6c" x="470.783203"/>
     <use xlink:href="#TimesNewRomanPSMT-65" x="498.566406"/>
     <use xlink:href="#TimesNewRomanPSMT-56" x="542.951172"/>
     <use xlink:href="#TimesNewRomanPSMT-32" x="615.167969"/>
    </g>
   </g>
   <g id="text_18">
    <!-- Faster_MobileV2 -->
    <g transform="translate(200.015552 133.77777)scale(0.12 -0.12)">
     <defs>
      <path id="TimesNewRomanPSMT-46" d="M 1309 4006 
L 1309 2341 
L 2081 2341 
Q 2347 2341 2470 2458 
Q 2594 2575 2634 2922 
L 2750 2922 
L 2750 1488 
L 2634 1488 
Q 2631 1734 2570 1850 
Q 2509 1966 2401 2023 
Q 2294 2081 2081 2081 
L 1309 2081 
L 1309 750 
Q 1309 428 1350 325 
Q 1381 247 1481 191 
Q 1619 116 1769 116 
L 1922 116 
L 1922 0 
L 103 0 
L 103 116 
L 253 116 
Q 516 116 634 269 
Q 709 369 709 750 
L 709 3488 
Q 709 3809 669 3913 
Q 638 3991 541 4047 
Q 406 4122 253 4122 
L 103 4122 
L 103 4238 
L 3256 4238 
L 3297 3306 
L 3188 3306 
Q 3106 3603 2998 3742 
Q 2891 3881 2733 3943 
Q 2575 4006 2244 4006 
L 1309 4006 
z
" transform="scale(0.015625)"/>
      <path id="TimesNewRomanPSMT-61" d="M 1822 413 
Q 1381 72 1269 19 
Q 1100 -59 909 -59 
Q 613 -59 420 144 
Q 228 347 228 678 
Q 228 888 322 1041 
Q 450 1253 767 1440 
Q 1084 1628 1822 1897 
L 1822 2009 
Q 1822 2438 1686 2597 
Q 1550 2756 1291 2756 
Q 1094 2756 978 2650 
Q 859 2544 859 2406 
L 866 2225 
Q 866 2081 792 2003 
Q 719 1925 600 1925 
Q 484 1925 411 2006 
Q 338 2088 338 2228 
Q 338 2497 613 2722 
Q 888 2947 1384 2947 
Q 1766 2947 2009 2819 
Q 2194 2722 2281 2516 
Q 2338 2381 2338 1966 
L 2338 994 
Q 2338 584 2353 492 
Q 2369 400 2405 369 
Q 2441 338 2488 338 
Q 2538 338 2575 359 
Q 2641 400 2828 588 
L 2828 413 
Q 2478 -56 2159 -56 
Q 2006 -56 1915 50 
Q 1825 156 1822 413 
z
M 1822 616 
L 1822 1706 
Q 1350 1519 1213 1441 
Q 966 1303 859 1153 
Q 753 1003 753 825 
Q 753 600 887 451 
Q 1022 303 1197 303 
Q 1434 303 1822 616 
z
" transform="scale(0.015625)"/>
      <path id="TimesNewRomanPSMT-74" d="M 1031 3803 
L 1031 2863 
L 1700 2863 
L 1700 2644 
L 1031 2644 
L 1031 788 
Q 1031 509 1111 412 
Q 1191 316 1316 316 
Q 1419 316 1516 380 
Q 1613 444 1666 569 
L 1788 569 
Q 1678 263 1478 108 
Q 1278 -47 1066 -47 
Q 922 -47 784 33 
Q 647 113 581 261 
Q 516 409 516 719 
L 516 2644 
L 63 2644 
L 63 2747 
Q 234 2816 414 2980 
Q 594 3144 734 3369 
Q 806 3488 934 3803 
L 1031 3803 
z
" transform="scale(0.015625)"/>
     </defs>
     <use xlink:href="#TimesNewRomanPSMT-46"/>
     <use xlink:href="#TimesNewRomanPSMT-61" x="55.615234"/>
     <use xlink:href="#TimesNewRomanPSMT-73" x="100"/>
     <use xlink:href="#TimesNewRomanPSMT-74" x="138.916016"/>
     <use xlink:href="#TimesNewRomanPSMT-65" x="166.699219"/>
     <use xlink:href="#TimesNewRomanPSMT-72" x="211.083984"/>
     <use xlink:href="#TimesNewRomanPSMT-5f" x="244.384766"/>
     <use xlink:href="#TimesNewRomanPSMT-4d" x="294.384766"/>
     <use xlink:href="#TimesNewRomanPSMT-6f" x="383.300781"/>
     <use xlink:href="#TimesNewRomanPSMT-62" x="433.300781"/>
     <use xlink:href="#TimesNewRomanPSMT-69" x="483.300781"/>
     <use xlink:href="#TimesNewRomanPSMT-6c" x="511.083984"/>
     <use xlink:href="#TimesNewRomanPSMT-65" x="538.867188"/>
     <use xlink:href="#TimesNewRomanPSMT-56" x="583.251953"/>
     <use xlink:href="#TimesNewRomanPSMT-32" x="655.46875"/>
    </g>
   </g>
   <g id="text_19">
    <!-- Faster_R18 -->
    <g transform="translate(297.65216 129.78609)scale(0.12 -0.12)">
     <defs>
      <path id="TimesNewRomanPSMT-52" d="M 4325 0 
L 3194 0 
L 1759 1981 
Q 1600 1975 1500 1975 
Q 1459 1975 1412 1976 
Q 1366 1978 1316 1981 
L 1316 750 
Q 1316 350 1403 253 
Q 1522 116 1759 116 
L 1925 116 
L 1925 0 
L 109 0 
L 109 116 
L 269 116 
Q 538 116 653 291 
Q 719 388 719 750 
L 719 3488 
Q 719 3888 631 3984 
Q 509 4122 269 4122 
L 109 4122 
L 109 4238 
L 1653 4238 
Q 2328 4238 2648 4139 
Q 2969 4041 3192 3777 
Q 3416 3513 3416 3147 
Q 3416 2756 3161 2468 
Q 2906 2181 2372 2063 
L 3247 847 
Q 3547 428 3762 290 
Q 3978 153 4325 116 
L 4325 0 
z
M 1316 2178 
Q 1375 2178 1419 2176 
Q 1463 2175 1491 2175 
Q 2097 2175 2405 2437 
Q 2713 2700 2713 3106 
Q 2713 3503 2464 3751 
Q 2216 4000 1806 4000 
Q 1625 4000 1316 3941 
L 1316 2178 
z
" transform="scale(0.015625)"/>
      <path id="TimesNewRomanPSMT-31" d="M 750 3822 
L 1781 4325 
L 1884 4325 
L 1884 747 
Q 1884 391 1914 303 
Q 1944 216 2037 169 
Q 2131 122 2419 116 
L 2419 0 
L 825 0 
L 825 116 
Q 1125 122 1212 167 
Q 1300 213 1334 289 
Q 1369 366 1369 747 
L 1369 3034 
Q 1369 3497 1338 3628 
Q 1316 3728 1258 3775 
Q 1200 3822 1119 3822 
Q 1003 3822 797 3725 
L 750 3822 
z
" transform="scale(0.015625)"/>
     </defs>
     <use xlink:href="#TimesNewRomanPSMT-46"/>
     <use xlink:href="#TimesNewRomanPSMT-61" x="55.615234"/>
     <use xlink:href="#TimesNewRomanPSMT-73" x="100"/>
     <use xlink:href="#TimesNewRomanPSMT-74" x="138.916016"/>
     <use xlink:href="#TimesNewRomanPSMT-65" x="166.699219"/>
     <use xlink:href="#TimesNewRomanPSMT-72" x="211.083984"/>
     <use xlink:href="#TimesNewRomanPSMT-5f" x="244.384766"/>
     <use xlink:href="#TimesNewRomanPSMT-52" x="294.384766"/>
     <use xlink:href="#TimesNewRomanPSMT-31" x="361.083984"/>
     <use xlink:href="#TimesNewRomanPSMT-38" x="411.083984"/>
    </g>
   </g>
   <g id="text_20">
    <!-- Retina_Effb0 -->
    <g transform="translate(147.090368 90.667626)scale(0.12 -0.12)">
     <defs>
      <path id="TimesNewRomanPSMT-6e" d="M 1034 2341 
Q 1538 2947 1994 2947 
Q 2228 2947 2397 2830 
Q 2566 2713 2666 2444 
Q 2734 2256 2734 1869 
L 2734 647 
Q 2734 375 2778 278 
Q 2813 200 2889 156 
Q 2966 113 3172 113 
L 3172 0 
L 1756 0 
L 1756 113 
L 1816 113 
Q 2016 113 2095 173 
Q 2175 234 2206 353 
Q 2219 400 2219 647 
L 2219 1819 
Q 2219 2209 2117 2386 
Q 2016 2563 1775 2563 
Q 1403 2563 1034 2156 
L 1034 647 
Q 1034 356 1069 288 
Q 1113 197 1189 155 
Q 1266 113 1500 113 
L 1500 0 
L 84 0 
L 84 113 
L 147 113 
Q 366 113 442 223 
Q 519 334 519 647 
L 519 1709 
Q 519 2225 495 2337 
Q 472 2450 423 2490 
Q 375 2531 294 2531 
Q 206 2531 84 2484 
L 38 2597 
L 900 2947 
L 1034 2947 
L 1034 2341 
z
" transform="scale(0.015625)"/>
     </defs>
     <use xlink:href="#TimesNewRomanPSMT-52"/>
     <use xlink:href="#TimesNewRomanPSMT-65" x="66.699219"/>
     <use xlink:href="#TimesNewRomanPSMT-74" x="111.083984"/>
     <use xlink:href="#TimesNewRomanPSMT-69" x="138.867188"/>
     <use xlink:href="#TimesNewRomanPSMT-6e" x="166.650391"/>
     <use xlink:href="#TimesNewRomanPSMT-61" x="216.650391"/>
     <use xlink:href="#TimesNewRomanPSMT-5f" x="261.035156"/>
     <use xlink:href="#TimesNewRomanPSMT-45" x="311.035156"/>
     <use xlink:href="#TimesNewRomanPSMT-66" x="372.119141"/>
     <use xlink:href="#TimesNewRomanPSMT-66" x="403.669922"/>
     <use xlink:href="#TimesNewRomanPSMT-62" x="436.970703"/>
     <use xlink:href="#TimesNewRomanPSMT-30" x="486.970703"/>
    </g>
   </g>
   <g id="text_21">
    <!-- 30G -->
    <g transform="translate(66.2384 210.95025)scale(0.12 -0.12)">
     <defs>
      <path id="TimesNewRomanPSMT-47" d="M 3928 4334 
L 4038 2997 
L 3928 2997 
Q 3763 3497 3500 3750 
Q 3122 4116 2528 4116 
Q 1719 4116 1297 3475 
Q 944 2934 944 2188 
Q 944 1581 1178 1081 
Q 1413 581 1792 348 
Q 2172 116 2572 116 
Q 2806 116 3025 175 
Q 3244 234 3447 350 
L 3447 1575 
Q 3447 1894 3398 1992 
Q 3350 2091 3248 2142 
Q 3147 2194 2891 2194 
L 2891 2313 
L 4531 2313 
L 4531 2194 
L 4453 2194 
Q 4209 2194 4119 2031 
Q 4056 1916 4056 1575 
L 4056 278 
Q 3697 84 3347 -6 
Q 2997 -97 2569 -97 
Q 1341 -97 703 691 
Q 225 1281 225 2053 
Q 225 2613 494 3125 
Q 813 3734 1369 4063 
Q 1834 4334 2469 4334 
Q 2700 4334 2889 4296 
Q 3078 4259 3425 4131 
Q 3600 4066 3659 4066 
Q 3719 4066 3761 4120 
Q 3803 4175 3813 4334 
L 3928 4334 
z
" transform="scale(0.015625)"/>
     </defs>
     <use xlink:href="#TimesNewRomanPSMT-33"/>
     <use xlink:href="#TimesNewRomanPSMT-30" x="50"/>
     <use xlink:href="#TimesNewRomanPSMT-47" x="100"/>
    </g>
   </g>
   <g id="text_22">
    <!-- 40G -->
    <g transform="translate(109.0928 210.95025)scale(0.12 -0.12)">
     <use xlink:href="#TimesNewRomanPSMT-34"/>
     <use xlink:href="#TimesNewRomanPSMT-30" x="50"/>
     <use xlink:href="#TimesNewRomanPSMT-47" x="100"/>
    </g>
   </g>
   <g id="text_23">
    <!-- 50G -->
    <g transform="translate(175.51712 210.95025)scale(0.12 -0.12)">
     <use xlink:href="#TimesNewRomanPSMT-35"/>
     <use xlink:href="#TimesNewRomanPSMT-30" x="50"/>
     <use xlink:href="#TimesNewRomanPSMT-47" x="100"/>
    </g>
   </g>
   <g id="text_24">
    <!-- 60G -->
    <g transform="translate(244.7984 210.95025)scale(0.12 -0.12)">
     <use xlink:href="#TimesNewRomanPSMT-36"/>
     <use xlink:href="#TimesNewRomanPSMT-30" x="50"/>
     <use xlink:href="#TimesNewRomanPSMT-47" x="100"/>
    </g>
   </g>
   <g id="text_25">
    <!-- 70G -->
    <g transform="translate(319.07936 210.95025)scale(0.12 -0.12)">
     <use xlink:href="#TimesNewRomanPSMT-37"/>
     <use xlink:href="#TimesNewRomanPSMT-30" x="50"/>
     <use xlink:href="#TimesNewRomanPSMT-47" x="100"/>
    </g>
   </g>
  </g>
 </g>
 <defs>
  <clipPath id="p4c88f2ad2f">
   <rect x="41.24" y="11.36625" width="357.12" height="266.112"/>
  </clipPath>
 </defs>
</svg>
